<?xml version="1.0" encoding="UTF-8" standalone="no"?>
<!-- Uploaded to: SVG Repo, www.svgrepo.com, Transformed by: SVG Repo Mixer Tools -->

<svg
   fill="#000000"
   height="800px"
   width="800px"
   version="1.1"
   id="Capa_1"
   viewBox="0 0 463 463"
   xml:space="preserve"
   sodipodi:docname="cask.svg"
   inkscape:version="1.4 (e7c3feb100, 2024-10-09)"
   xmlns:inkscape="http://www.inkscape.org/namespaces/inkscape"
   xmlns:sodipodi="http://sodipodi.sourceforge.net/DTD/sodipodi-0.dtd"
   xmlns="http://www.w3.org/2000/svg"
   xmlns:svg="http://www.w3.org/2000/svg"><defs
   id="defs1" /><sodipodi:namedview
   id="namedview1"
   pagecolor="#ffffff"
   bordercolor="#000000"
   borderopacity="0.25"
   inkscape:showpageshadow="2"
   inkscape:pageopacity="0.0"
   inkscape:pagecheckerboard="0"
   inkscape:deskcolor="#d1d1d1"
   inkscape:zoom="0.80035649"
   inkscape:cx="369.21048"
   inkscape:cy="440.42874"
   inkscape:window-width="1253"
   inkscape:window-height="1132"
   inkscape:window-x="915"
   inkscape:window-y="252"
   inkscape:window-maximized="0"
   inkscape:current-layer="Capa_1" />

<rect x="0" y="0" width="100%" height="100%" fill="white"/>

<g
   id="SVGRepo_bgCarrier"
   stroke-width="0" />

<g
   id="SVGRepo_tracerCarrier"
   stroke-linecap="round"
   stroke-linejoin="round" />

<g
   id="SVGRepo_iconCarrier"
   transform="matrix(0.95,0,0,0.95,11.575,11.575)"> <path
   d="m 431,231.5 c 0,-43.742 -4.489,-86.368 -13.319,-126.763 2.785,-3.743 3.746,-8.452 2.61,-12.996 l -4,-16 c -1.2,-4.8 -4.551,-8.59 -8.871,-10.461 C 401.923,47.195 395.507,29.867 388.3,13.735 384.573,5.391 376.169,0 366.891,0 H 96.109 C 86.831,0 78.427,5.391 74.7,13.733 67.493,29.865 61.077,47.192 55.58,65.279 51.26,67.15 47.909,70.94 46.709,75.74 l -4,16.001 c -1.135,4.543 -0.174,9.252 2.611,12.995 C 36.488,145.132 32,187.759 32,231.5 c 0,43.74 4.489,86.367 13.319,126.764 -2.785,3.743 -3.746,8.452 -2.61,12.996 l 4,16 c 1.2,4.8 4.551,8.59 8.871,10.461 5.496,18.084 11.913,35.412 19.12,51.545 C 78.427,457.609 86.831,463 96.109,463 H 366.89 c 9.279,0 17.682,-5.391 21.409,-13.733 7.209,-16.137 13.625,-33.465 19.12,-51.546 4.32,-1.871 7.671,-5.661 8.871,-10.461 l 4,-16.001 c 1.135,-4.543 0.174,-9.253 -2.611,-12.995 C 426.511,317.868 431,275.242 431,231.5 Z M 276.332,448 c 1.73,-15.38 3.275,-31.801 4.612,-49 h 61.651 c -3.867,17.257 -8.344,33.682 -13.346,49 z m -74.568,0 c -1.748,-15.347 -3.312,-31.767 -4.664,-49 h 68.8 c -1.352,17.233 -2.915,33.653 -4.664,49 z m -68.011,0 c -5.002,-15.32 -9.48,-31.737 -13.348,-49 h 61.652 c 1.337,17.199 2.881,33.62 4.612,49 z M 61.746,384 c -0.23,0 -0.43,-0.156 -0.485,-0.379 l -4,-15.999 c -0.018,-0.071 -0.06,-0.237 0.091,-0.43 C 57.502,367 57.673,367 57.746,367 h 47.341 c 0.051,10e-4 0.1,0.007 0.151,0.007 0.029,0 0.058,-0.007 0.086,-0.007 h 299.929 c 0.073,0 0.244,0 0.394,0.192 0.15,0.192 0.109,0.358 0.091,0.429 l -4,16 c -0.056,0.223 -0.255,0.379 -0.485,0.379 z M 186.668,15 c -1.73,15.382 -3.275,31.803 -4.611,49 h -61.651 c 3.867,-17.257 8.344,-33.681 13.345,-49 z m 74.568,0 c 1.749,15.349 3.312,31.769 4.664,49 h -68.799 c 1.351,-17.231 2.915,-33.651 4.664,-49 z m 68.012,0 c 5.001,15.318 9.479,31.743 13.346,49 h -61.651 c -1.336,-17.197 -2.881,-33.618 -4.611,-49 z m 72.006,64 c 0.23,0 0.43,0.156 0.485,0.379 l 4,15.999 c 0.018,0.071 0.06,0.237 -0.091,0.43 C 405.498,96 405.327,96 405.254,96 H 57.746 c -0.073,0 -0.244,0 -0.394,-0.192 -0.15,-0.192 -0.109,-0.358 -0.091,-0.429 l 4,-16 C 61.316,79.156 61.516,79 61.746,79 Z M 366.481,352 C 372.133,313.482 375,272.994 375,231.5 375,190.006 372.133,149.518 366.481,111 h 37.209 c 8.164,38.436 12.31,78.938 12.31,120.5 0,41.562 -4.146,82.064 -12.31,120.5 z m -82.519,0 C 285.97,313.498 287,273.022 287,231.5 287,189.978 285.97,149.501 283.962,111 h 67.354 c 5.761,38.448 8.684,78.948 8.684,120.5 0,41.552 -2.924,82.052 -8.684,120.5 z M 59.31,352 C 51.146,313.563 47,273.06 47,231.5 47,189.94 51.146,149.437 59.31,111 H 96.519 C 90.867,149.516 88,190.004 88,231.5 c 0,41.493 2.867,81.981 8.519,120.5 z m 52.374,0 C 105.924,313.552 103,273.051 103,231.5 c 0,-41.553 2.924,-82.054 8.684,-120.5 h 67.354 C 177.03,149.501 176,189.978 176,231.5 c 0,41.522 1.03,81.998 3.038,120.5 z m 82.374,0 C 192.037,313.525 191,273.043 191,231.5 c 0,-41.543 1.037,-82.025 3.058,-120.5 h 74.883 c 2.021,38.475 3.058,78.957 3.058,120.5 0,41.543 -1.037,82.025 -3.058,120.5 z M 374.604,19.853 c 6.202,13.881 11.8,28.7 16.711,44.147 h -33.368 c -3.752,-17.173 -8.09,-33.594 -12.948,-49 h 21.891 c 3.37,0 6.398,1.904 7.714,4.853 z M 88.396,19.852 C 89.712,16.904 92.74,15 96.109,15 H 118 c -4.858,15.406 -9.196,31.828 -12.947,49 H 71.684 C 76.596,48.551 82.194,33.733 88.396,19.852 Z m 0,423.295 C 82.194,429.265 76.596,414.447 71.685,399 h 33.367 c 3.753,17.178 8.092,33.594 12.949,49 H 96.109 c -3.369,0 -6.397,-1.904 -7.713,-4.853 z m 286.208,0.001 C 373.287,446.095 370.259,448 366.89,448 H 345 c 4.857,-15.406 9.196,-31.827 12.948,-49 h 33.368 c -4.91,15.444 -10.509,30.262 -16.712,44.148 z"
   id="path1" /> </g>

</svg>
